<?xml version="1.0" encoding="UTF-8" standalone="no"?>
<!-- Created with Inkscape (http://www.inkscape.org/) -->

<svg
   xmlns:dc="http://purl.org/dc/elements/1.1/"
   xmlns:cc="http://creativecommons.org/ns#"
   xmlns:rdf="http://www.w3.org/1999/02/22-rdf-syntax-ns#"
   xmlns:svg="http://www.w3.org/2000/svg"
   xmlns="http://www.w3.org/2000/svg"
   xmlns:sodipodi="http://sodipodi.sourceforge.net/DTD/sodipodi-0.dtd"
   xmlns:inkscape="http://www.inkscape.org/namespaces/inkscape"
   width="1920"
   height="1080"
   viewBox="0 0 507.99999 285.75001"
   version="1.1"
   id="svg547"
   inkscape:version="0.92.2 (5c3e80d, 2017-08-06)"
   sodipodi:docname="logo_vertical_1080p.svg"
   inkscape:export-filename="/home/cefn/Documents/shrimping/vgkits/git/vanguard/vector/logo/logo_vertical_1080p.svg.png"
   inkscape:export-xdpi="96"
   inkscape:export-ydpi="96">
  <defs
     id="defs541" />
  <sodipodi:namedview
     id="base"
     pagecolor="#ffffff"
     bordercolor="#666666"
     borderopacity="1.0"
     inkscape:pageopacity="0"
     inkscape:pageshadow="2"
     inkscape:zoom="0.36906645"
     inkscape:cx="609.30546"
     inkscape:cy="581.17443"
     inkscape:document-units="mm"
     inkscape:current-layer="layer1"
     showgrid="false"
     units="px"
     inkscape:window-width="1366"
     inkscape:window-height="717"
     inkscape:window-x="0"
     inkscape:window-y="0"
     inkscape:window-maximized="1" />
  <metadata
     id="metadata544">
    <rdf:RDF>
      <cc:Work
         rdf:about="">
        <dc:format>image/svg+xml</dc:format>
        <dc:type
           rdf:resource="http://purl.org/dc/dcmitype/StillImage" />
        <dc:title></dc:title>
      </cc:Work>
    </rdf:RDF>
  </metadata>
  <g
     inkscape:label="Layer 1"
     inkscape:groupmode="layer"
     id="layer1"
     transform="translate(0,-11.249983)">
    <path
       style="fill:none;stroke:#0ea900;stroke-width:29.05673599;stroke-linecap:round;stroke-linejoin:round;stroke-miterlimit:4;stroke-dasharray:none;stroke-opacity:1"
       d="M 209.71948,92.445742 245.28649,142.9217 323.03138,35.358873"
       id="path1259-2-3"
       inkscape:connector-curvature="0"
       sodipodi:nodetypes="ccc" />
    <path
       id="path1253-3"
       style="fill:none;stroke:#f28511;stroke-width:18.83021736;stroke-linecap:round;stroke-linejoin:round;stroke-miterlimit:4;stroke-dasharray:none;stroke-opacity:1"
       d="m 282.13182,145.86755 c 13.23027,0.003 26.25648,9.8e-4 38.54803,-0.008 -5.40126,15.01549 -12.70891,26.51671 -23.88476,36.38425 -3.49562,3.03586 -7.2582,5.78533 -11.25474,8.20801 -3.99654,2.42268 -8.22701,4.51872 -12.65839,6.24769 -4.43138,1.72899 -9.06364,3.09108 -13.86378,4.04587 -38.40114,7.63907 -76.85041,-12.91241 -91.83378,-49.08552 -14.98337,-36.17303 -2.3278,-77.892946 30.22713,-99.64543 4.06936,-2.71909 8.30796,-5.031503 12.66403,-6.942329 4.35605,-1.910905 8.82952,-3.420144 13.3686,-4.533044 4.53908,-1.112899 9.14377,-1.829302 13.76227,-2.154378 4.61847,-0.324997 9.25074,-0.259214 13.84496,0.193432 4.59421,0.452647 9.15038,1.291217 13.61671,2.511091"
       inkscape:connector-curvature="0"
       sodipodi:nodetypes="cccsssssssssc" />
    <path
       inkscape:connector-curvature="0"
       id="path1392"
       style="font-style:normal;font-variant:normal;font-weight:bold;font-stretch:normal;font-size:medium;line-height:1.25;font-family:monospace;-inkscape-font-specification:monospace;letter-spacing:0px;word-spacing:0px;fill:#c5007c;fill-opacity:1;stroke:none;stroke-width:2.63298082"
       d="m 155.30089,198.5407 h 15.06765 v 42.01447 l 18.10174,-19.59306 h 18.25602 l -21.80435,21.49589 23.03857,36.10061 h -16.66183 l -15.78761,-26.94692 -5.14254,4.93683 v 22.01009 h -15.06765 z" />
    <path
       inkscape:connector-curvature="0"
       style="font-style:normal;font-variant:normal;font-weight:bold;font-stretch:normal;font-size:medium;line-height:1.25;font-family:monospace;-inkscape-font-specification:monospace;letter-spacing:0px;word-spacing:0px;fill:#c5007c;fill-opacity:1;stroke:none;stroke-width:2.63298082"
       d="m 220.93684,220.96211 h 29.82675 v 46.02579 h 18.71885 v 11.57071 H 216.92566 V 266.9879 h 18.77029 v -34.45501 h -14.75911 z"
       id="path1407" />
    <path
       inkscape:connector-curvature="0"
       id="path1396"
       style="font-style:normal;font-variant:normal;font-weight:bold;font-stretch:normal;font-size:medium;line-height:1.25;font-family:monospace;-inkscape-font-specification:monospace;letter-spacing:0px;word-spacing:0px;fill:#c5007c;fill-opacity:1;stroke:none;stroke-width:2.63298082"
       d="m 308.22292,204.60887 v 16.35324 h 19.69594 v 11.57078 h -19.69594 v 27.25546 q 0,3.85687 1.85132,5.55389 1.90274,1.64566 6.2739,1.64566 h 11.57072 v 11.57071 h -12.65065 q -12.9592,0 -17.53607,-4.11397 -4.57686,-4.16548 -4.57686,-15.37623 V 232.53289 H 278.4476 v -11.57078 h 14.70768 v -16.35324 z" />
    <path
       inkscape:connector-curvature="0"
       id="path1398"
       style="font-style:normal;font-variant:normal;font-weight:bold;font-stretch:normal;font-size:medium;line-height:1.25;font-family:monospace;-inkscape-font-specification:monospace;letter-spacing:0px;word-spacing:0px;fill:#c5007c;fill-opacity:1;stroke:none;stroke-width:2.63298082"
       d="m 379.00143,222.762 v 13.16494 q -4.16547,-2.67412 -8.69091,-4.01119 -4.474,-1.38849 -8.99942,-1.38849 -5.03973,0 -7.61097,1.49137 -2.5713,1.43992 -2.5713,4.3197 0,4.11405 11.00506,6.6853 l 0.56569,0.15445 4.31976,1.02853 q 8.22806,1.95411 12.03354,6.32526 3.85694,4.31978 3.85694,11.725 0,8.89666 -5.86252,13.37067 -5.81109,4.4225 -17.53607,4.4225 -5.19398,0 -10.64505,-0.92559 -5.45111,-0.87429 -11.05647,-2.67418 V 263.2854 q 4.98825,2.82842 10.1308,4.31971 5.19397,1.49136 10.02796,1.49136 5.29681,0 8.02237,-1.54272 2.72554,-1.5428 2.72554,-4.47401 0,-2.87986 -1.95417,-4.42264 -1.90274,-1.5428 -9.15373,-3.29118 l -4.16547,-0.92574 q -8.63949,-1.95412 -12.59924,-6.1196 -3.95975,-4.16548 -3.95975,-11.15931 0,-8.33095 6.01678,-12.9592 6.01678,-4.62823 16.91895,-4.62823 4.88541,0 9.71941,0.82279 4.88542,0.77136 9.46227,2.36552 z" />
  </g>
</svg>
