<?xml version="1.0" encoding="UTF-8" standalone="no"?>
<!-- Created with Inkscape (http://www.inkscape.org/) -->

<svg
   xmlns:dc="http://purl.org/dc/elements/1.1/"
   xmlns:cc="http://creativecommons.org/ns#"
   xmlns:rdf="http://www.w3.org/1999/02/22-rdf-syntax-ns#"
   xmlns:svg="http://www.w3.org/2000/svg"
   xmlns="http://www.w3.org/2000/svg"
   xmlns:sodipodi="http://sodipodi.sourceforge.net/DTD/sodipodi-0.dtd"
   xmlns:inkscape="http://www.inkscape.org/namespaces/inkscape"
   width="400"
   height="400"
   viewBox="0 0 105.83333 105.83334"
   version="1.1"
   id="svg8672"
   inkscape:version="0.92.2 (5c3e80d, 2017-08-06)"
   sodipodi:docname="tick.svg"
   inkscape:export-filename="/home/cefn/Documents/shrimping/vgkits/identity/logo/twitter_40x40.png"
   inkscape:export-xdpi="96"
   inkscape:export-ydpi="96">
  <defs
     id="defs8666" />
  <sodipodi:namedview
     id="base"
     pagecolor="#ffffff"
     bordercolor="#666666"
     borderopacity="1.0"
     inkscape:pageopacity="0.0"
     inkscape:pageshadow="2"
     inkscape:zoom="0.49497474"
     inkscape:cx="-58.744658"
     inkscape:cy="100.00035"
     inkscape:document-units="mm"
     inkscape:current-layer="layer1"
     showgrid="false"
     fit-margin-top="0"
     fit-margin-left="0"
     fit-margin-right="0"
     fit-margin-bottom="0"
     units="px"
     inkscape:window-width="1366"
     inkscape:window-height="717"
     inkscape:window-x="0"
     inkscape:window-y="0"
     inkscape:window-maximized="1" />
  <metadata
     id="metadata8669">
    <rdf:RDF>
      <cc:Work
         rdf:about="">
        <dc:format>image/svg+xml</dc:format>
        <dc:type
           rdf:resource="http://purl.org/dc/dcmitype/StillImage" />
        <dc:title></dc:title>
      </cc:Work>
    </rdf:RDF>
  </metadata>
  <g
     inkscape:label="Layer 1"
     inkscape:groupmode="layer"
     id="layer1"
     transform="translate(-4.9696355,-140.00076)">
    <g
       id="g8701"
       transform="matrix(1.5425814,0,0,1.5425814,12.494404,-147.54895)">
      <path
         sodipodi:nodetypes="ccc"
         inkscape:connector-curvature="0"
         id="path1259-2-3"
         d="m 19.94859,212.58035 9.742588,13.82647 19.425151,-26.79112"
         style="fill:none;stroke:#0fad00;stroke-width:7.95927954;stroke-linecap:round;stroke-linejoin:round;stroke-miterlimit:4;stroke-dasharray:none;stroke-opacity:1" />
      <path
         sodipodi:nodetypes="cccsssssssssc"
         inkscape:connector-curvature="0"
         d="m 40.744183,227.78991 c 3.62406,8e-4 7.192224,3.9e-4 10.559153,-0.002 -1.479525,4.11307 -3.481249,7.26351 -6.542562,9.96644 -0.957526,0.83159 -1.988182,1.58473 -3.08292,2.24836 -1.09474,0.66362 -2.253558,1.23777 -3.467413,1.71138 -1.213849,0.47361 -2.482731,0.84671 -3.797596,1.10825 C 23.89393,244.91471 13.361829,239.28521 9.2575525,229.3766 5.1532761,219.468 8.6199186,208.04 17.537427,202.08152 c 1.11469,-0.74482 2.275737,-1.37824 3.46896,-1.90166 1.193217,-0.52344 2.4186,-0.93685 3.661954,-1.2417 1.243354,-0.30485 2.504679,-0.50109 3.769785,-0.59013 1.265104,-0.089 2.533981,-0.071 3.79244,0.053 1.258456,0.12399 2.506493,0.3537 3.729919,0.68785"
         style="fill:none;stroke:#f68712;stroke-width:5.15801144;stroke-linecap:round;stroke-linejoin:round;stroke-miterlimit:4;stroke-dasharray:none;stroke-opacity:1"
         id="path1253-3" />
    </g>
  </g>
</svg>
