<?xml version="1.0" encoding="UTF-8" standalone="no"?>
<svg
   xmlns:dc="http://purl.org/dc/elements/1.1/"
   xmlns:cc="http://creativecommons.org/ns#"
   xmlns:rdf="http://www.w3.org/1999/02/22-rdf-syntax-ns#"
   xmlns:svg="http://www.w3.org/2000/svg"
   xmlns="http://www.w3.org/2000/svg"
   xmlns:sodipodi="http://sodipodi.sourceforge.net/DTD/sodipodi-0.dtd"
   xmlns:inkscape="http://www.inkscape.org/namespaces/inkscape"
   id="svg606"
   version="1.1"
   viewBox="0 0 507.99999 285.74998"
   height="1080"
   width="1920"
   sodipodi:docname="text_16_9.svg"
   inkscape:version="0.92.2 (5c3e80d, 2017-08-06)">
  <sodipodi:namedview
     pagecolor="#ffffff"
     bordercolor="#666666"
     borderopacity="1"
     objecttolerance="10"
     gridtolerance="10"
     guidetolerance="10"
     inkscape:pageopacity="0"
     inkscape:pageshadow="2"
     inkscape:window-width="1366"
     inkscape:window-height="717"
     id="namedview13"
     showgrid="false"
     inkscape:zoom="0.36151999"
     inkscape:cx="960.00001"
     inkscape:cy="540"
     inkscape:window-x="0"
     inkscape:window-y="0"
     inkscape:window-maximized="1"
     inkscape:current-layer="layer4" />
  <defs
     id="defs600" />
  <metadata
     id="metadata603">
    <rdf:RDF>
      <cc:Work
         rdf:about="">
        <dc:format>image/svg+xml</dc:format>
        <dc:type
           rdf:resource="http://purl.org/dc/dcmitype/StillImage" />
        <dc:title />
      </cc:Work>
    </rdf:RDF>
  </metadata>
  <g
     inkscape:groupmode="layer"
     id="layer4"
     inkscape:label="dot org">
    <g
       style=""
       id="g323">
      <path
         d="m 321.94009,164.38377 h 9.18306 v 10.12062 h -9.18306 z"
         style="font-style:normal;font-variant:normal;font-weight:bold;font-stretch:normal;font-size:medium;line-height:1.25;font-family:monospace;-inkscape-font-specification:monospace;letter-spacing:-0.15508863px;word-spacing:0px;fill:#c5007c;fill-opacity:1;stroke:none;stroke-width:1.41192734"
         id="path224"
         inkscape:connector-curvature="0" />
      <path
         d="m 351.47576,149.43716 q -2.89557,0 -4.55015,2.56465 -1.65462,2.53705 -1.65462,7.0872 0,4.55016 1.65462,7.11482 1.65458,2.53706 4.55015,2.53706 2.92313,0 4.57774,-2.53706 1.65459,-2.56466 1.65459,-7.11482 0,-4.55015 -1.65459,-7.0872 -1.65461,-2.56465 -4.57774,-2.56465 z m -14.28475,9.65185 q 0,-7.47327 3.86076,-11.83038 3.88832,-4.38471 10.42399,-4.38471 6.56326,0 10.42399,4.38471 3.88832,4.35711 3.88832,11.83038 0,7.47328 -3.88832,11.858 -3.86073,4.35709 -10.42399,4.35709 -6.53567,0 -10.42399,-4.35709 -3.86076,-4.38472 -3.86076,-11.858 z"
         style="font-style:normal;font-variant:normal;font-weight:bold;font-stretch:normal;font-size:medium;line-height:1.25;font-family:monospace;-inkscape-font-specification:monospace;letter-spacing:-0.15508863px;word-spacing:0px;fill:#c5007c;fill-opacity:1;stroke:none;stroke-width:1.41192734"
         id="path226"
         inkscape:connector-curvature="0" />
      <path
         d="m 395.57189,152.1397 q -1.32368,-1.21339 -3.1162,-1.82009 -1.76489,-0.60667 -3.88829,-0.60667 -2.56463,0 -4.49498,0.91002 -1.90281,0.88246 -2.95072,2.59221 -0.66186,1.04795 -0.93762,2.53708 -0.24817,1.48913 -0.24817,4.52256 v 14.22958 h -8.07998 v -30.8859 h 8.07998 v 4.79836 q 1.18579,-2.64737 3.64011,-4.08137 2.45434,-1.46156 5.73593,-1.46156 1.65464,0 3.22649,0.41367 1.59948,0.38607 3.03345,1.15821 z"
         style="font-style:normal;font-variant:normal;font-weight:bold;font-stretch:normal;font-size:medium;line-height:1.25;font-family:monospace;-inkscape-font-specification:monospace;letter-spacing:-0.15508863px;word-spacing:0px;fill:#c5007c;fill-opacity:1;stroke:none;stroke-width:1.41192734"
         id="path228"
         inkscape:connector-curvature="0" />
      <path
         d="m 421.08133,158.56505 q 0,-4.13651 -1.57184,-6.61838 -1.5719,-2.50951 -4.13651,-2.50951 -2.53707,0 -4.10893,2.4819 -1.54432,2.48192 -1.54432,6.64599 0,4.19169 1.54432,6.67356 1.57186,2.48194 4.10893,2.48194 2.56461,0 4.13651,-2.48194 1.57184,-2.50948 1.57184,-6.67356 z m 8.08002,13.62293 q 0,7.41813 -3.36438,10.69975 -3.33676,3.30918 -10.86521,3.30918 -2.53705,0 -5.019,-0.38606 -2.48187,-0.35851 -5.0465,-1.13063 v -7.41813 q 2.28884,1.26852 4.66047,1.87519 2.37158,0.60668 4.88105,0.60668 3.41951,0 5.04654,-1.62702 1.62701,-1.59945 1.62701,-5.01897 v -3.33674 q -1.18576,2.20611 -3.14374,3.28159 -1.95791,1.07554 -4.77078,1.07554 -5.29472,0 -8.4109,-4.13652 -3.11613,-4.13654 -3.11613,-11.22376 0,-7.33537 3.11613,-11.63735 3.11618,-4.30196 8.35579,-4.30196 2.64736,0 4.71559,1.24095 2.06828,1.24095 3.25404,3.50225 v -3.94348 h 8.08002 z"
         style="font-style:normal;font-variant:normal;font-weight:bold;font-stretch:normal;font-size:medium;line-height:1.25;font-family:monospace;-inkscape-font-specification:monospace;letter-spacing:-0.15508863px;word-spacing:0px;fill:#c5007c;fill-opacity:1;stroke:none;stroke-width:1.41192734"
         id="path230"
         inkscape:connector-curvature="0" />
    </g>
  </g>
  <g
     inkscape:groupmode="layer"
     id="layer3"
     inkscape:label="Word Kits">
    <g
       style=""
       id="g317">
      <path
         d="m 190.03668,131.59506 h 8.07997 v 22.53013 l 9.707,-10.5067 h 9.78973 l -11.69251,11.52709 12.35436,19.35881 h -8.93484 l -8.46605,-14.45019 -2.75769,2.64737 v 11.80282 h -8.07997 z"
         style="font-style:normal;font-variant:normal;font-weight:bold;font-stretch:normal;font-size:medium;line-height:1.25;font-family:monospace;-inkscape-font-specification:monospace;letter-spacing:-0.15508863px;word-spacing:0px;fill:#c5007c;fill-opacity:1;stroke:none;stroke-width:1.41192734"
         id="path216"
         inkscape:connector-curvature="0" />
      <path
         d="m 226.49411,143.61849 h 15.99449 v 24.68115 h 10.03792 v 6.20475 h -28.1834 v -6.20475 h 10.0655 v -18.47638 h -7.91451 z m 7.91451,-15.02929 h 8.07998 v 9.43121 h -8.07998 z"
         style="font-style:normal;font-variant:normal;font-weight:bold;font-stretch:normal;font-size:medium;line-height:1.25;font-family:monospace;-inkscape-font-specification:monospace;letter-spacing:-0.15508863px;word-spacing:0px;fill:#c5007c;fill-opacity:1;stroke:none;stroke-width:1.41192734"
         id="path218"
         inkscape:connector-curvature="0" />
      <path
         d="m 274.56131,134.84911 v 8.76938 h 10.56187 v 6.20477 h -10.56187 v 14.61563 q 0,2.06829 0.99275,2.97832 1.02034,0.88243 3.36439,0.88243 h 6.20473 v 6.20475 h -6.78387 q -6.94933,0 -9.40366,-2.20612 -2.45432,-2.2337 -2.45432,-8.24546 v -14.22955 h -7.88693 v -6.20477 h 7.88693 v -8.76938 z"
         style="font-style:normal;font-variant:normal;font-weight:bold;font-stretch:normal;font-size:medium;line-height:1.25;font-family:monospace;-inkscape-font-specification:monospace;letter-spacing:-0.15508863px;word-spacing:0px;fill:#c5007c;fill-opacity:1;stroke:none;stroke-width:1.41192734"
         id="path220"
         inkscape:connector-curvature="0" />
      <path
         d="m 313.7764,144.58368 v 7.05961 q -2.23372,-1.43397 -4.66047,-2.15099 -2.39917,-0.74452 -4.82591,-0.74452 -2.70252,0 -4.08137,0.7997 -1.37882,0.77213 -1.37882,2.31643 0,2.20614 5.90141,3.58499 l 0.30335,0.0827 2.31642,0.55151 q 4.41228,1.04795 6.45298,3.39194 2.06823,2.31644 2.06823,6.28752 0,4.77076 -3.14373,7.16995 -3.11617,2.37157 -9.40367,2.37157 -2.78524,0 -5.70836,-0.49639 -2.92316,-0.46879 -5.92901,-1.43395 v -7.05967 q 2.67495,1.51672 5.43261,2.31644 2.78527,0.79971 5.37746,0.79971 2.84042,0 4.30198,-0.82728 1.46156,-0.82728 1.46156,-2.39918 0,-1.5443 -1.04792,-2.37158 -1.02034,-0.82728 -4.90865,-1.76493 l -2.23372,-0.49638 q -4.63288,-1.04792 -6.75629,-3.28162 -2.12341,-2.23373 -2.12341,-5.98415 0,-4.46741 3.22648,-6.9493 3.22647,-2.48192 9.07274,-2.48192 2.61978,0 5.212,0.44122 2.61978,0.41367 5.07411,1.26853 z"
         style="font-style:normal;font-variant:normal;font-weight:bold;font-stretch:normal;font-size:medium;line-height:1.25;font-family:monospace;-inkscape-font-specification:monospace;letter-spacing:-0.15508863px;word-spacing:0px;fill:#c5007c;fill-opacity:1;stroke:none;stroke-width:1.41192734"
         id="path222"
         inkscape:connector-curvature="0" />
    </g>
  </g>
  <g
     inkscape:groupmode="layer"
     id="layer2"
     inkscape:label="Letter G">
    <path
       id="path1253-3-6-5-4"
       style="fill:none;stroke:#f68712;stroke-width:4.78570986;stroke-linecap:round;stroke-linejoin:round;stroke-miterlimit:4;stroke-dasharray:none;stroke-opacity:1"
       d="m 171.21391,157.83855 c 3.36246,7.3e-4 6.67308,3.6e-4 9.797,-0.003 -1.37276,3.81619 -3.23001,6.73926 -6.07033,9.24712 -0.88844,0.77153 -1.84469,1.47032 -2.86041,2.08604 -1.01574,0.61574 -2.0909,1.14844 -3.21714,1.58786 -1.12624,0.43942 -2.30352,0.78559 -3.52348,1.02828 -9.75969,1.94144 -19.53157,-3.28169 -23.33962,-12.47512 -3.80804,-9.19339 -0.59159,-19.79653 7.68225,-25.32492 1.03423,-0.69109 2.11147,-1.27879 3.21857,-1.76441 1.10708,-0.48563 2.24403,-0.86925 3.39763,-1.15209 1.15362,-0.28283 2.3239,-0.46488 3.4977,-0.54754 1.17379,-0.0827 2.35107,-0.0659 3.5187,0.0493 1.16763,0.11511 2.32559,0.32815 3.4607,0.63818"
       inkscape:connector-curvature="0"
       sodipodi:nodetypes="cccsssssssssc"
       inkscape:export-xdpi="207.49001"
       inkscape:export-ydpi="207.49001" />
  </g>
  <g
     inkscape:groupmode="layer"
     id="layer1"
     inkscape:label="Letter V">
    <path
       style="fill:none;stroke:#0fad00;stroke-width:16.3212204;stroke-linecap:round;stroke-linejoin:round;stroke-miterlimit:4;stroke-dasharray:none;stroke-opacity:1"
       d="m 87.06654,138.06781 19.97808,28.35243 43.66943,-60.41822"
       id="path1259-2-3-3-7-9"
       inkscape:connector-curvature="0"
       sodipodi:nodetypes="ccc"
       inkscape:export-xdpi="207.49001"
       inkscape:export-ydpi="207.49001" />
  </g>
</svg>
