<?xml version="1.0" encoding="UTF-8" standalone="no"?>
<svg
   xmlns:dc="http://purl.org/dc/elements/1.1/"
   xmlns:cc="http://creativecommons.org/ns#"
   xmlns:rdf="http://www.w3.org/1999/02/22-rdf-syntax-ns#"
   xmlns:svg="http://www.w3.org/2000/svg"
   xmlns="http://www.w3.org/2000/svg"
   id="svg465"
   version="1.1"
   viewBox="0 0 51.231445 18.011068"
   height="18.011068mm"
   width="51.231445mm">
  <defs
     id="defs459" />
  <metadata
     id="metadata462">
    <rdf:RDF>
      <cc:Work
         rdf:about="">
        <dc:format>image/svg+xml</dc:format>
        <dc:type
           rdf:resource="http://purl.org/dc/dcmitype/StillImage" />
        <dc:title></dc:title>
      </cc:Work>
    </rdf:RDF>
  </metadata>
  <g
     transform="translate(33.553223,-139.8278)"
     id="layer1">
    <g
       id="g529"
       transform="matrix(0.35277777,0,0,-0.35277777,-33.553223,157.83852)">
      <g
         id="g531">
        <path
           d="M 0,51.054 H 9.613 V 24.246 L 21.164,36.749 H 32.812 L 18.898,23.035 33.598,-0.001 H 22.969 L 12.895,17.195 9.613,14.042 V -0.001 H 0 Z"
           style="fill:#c5007c;fill-opacity:1;fill-rule:nonzero;stroke:none"
           id="path533" />
        <path
           d="M 41.965,36.749 H 60.996 V 7.382 H 72.938 V -0.001 H 39.406 v 7.383 h 11.977 v 21.985 h -9.418 z"
           style="fill:#c5007c;fill-opacity:1;fill-rule:nonzero;stroke:none"
           id="path535" />
        <path
           d="M 92.43,47.183 V 36.749 h 12.566 V 29.367 H 92.43 V 11.976 c 0,-1.641 0.394,-2.82 1.179,-3.543 0.809,-0.699 2.145,-1.051 4.004,-1.051 h 7.383 v -7.383 h -8.07 c -5.516,0 -9.242,0.875 -11.192,2.625 -1.945,1.774 -2.918,5.043 -2.918,9.813 v 16.93 H 73.43 v 7.382 h 9.386 v 10.434 z"
           style="fill:#c5007c;fill-opacity:1;fill-rule:nonzero;stroke:none"
           id="path537" />
        <path
           d="m 142.73,36.55 v -8.398 c -1.773,1.137 -3.621,1.992 -5.546,2.558 -1.903,0.59 -3.817,0.887 -5.743,0.887 -2.144,0 -3.761,-0.316 -4.855,-0.953 -1.094,-0.609 -1.641,-1.531 -1.641,-2.754 0,-1.75 2.34,-3.172 7.02,-4.266 l 0.363,-0.097 2.754,-0.656 c 3.5,-0.832 6.063,-2.176 7.68,-4.036 1.64,-1.839 2.461,-4.332 2.461,-7.484 0,-3.781 -1.246,-6.625 -3.743,-8.531 -2.468,-1.879 -6.199,-2.821 -11.187,-2.821 -2.207,0 -4.473,0.2 -6.793,0.59 -2.316,0.375 -4.668,0.942 -7.055,1.707 v 8.399 c 2.125,-1.203 4.278,-2.121 6.465,-2.754 2.211,-0.637 4.344,-0.953 6.399,-0.953 2.253,0 3.961,0.328 5.117,0.984 1.16,0.656 1.742,1.609 1.742,2.856 0,1.226 -0.418,2.164 -1.25,2.82 -0.809,0.656 -2.754,1.359 -5.84,2.101 l -2.656,0.59 c -3.676,0.832 -6.356,2.133 -8.039,3.907 -1.684,1.769 -2.528,4.144 -2.528,7.117 0,3.547 1.282,6.301 3.84,8.269 2.559,1.969 6.157,2.953 10.793,2.953 2.078,0 4.149,-0.175 6.203,-0.523 2.079,-0.328 4.09,-0.832 6.039,-1.512 z"
           style="fill:#c5007c;fill-opacity:1;fill-rule:nonzero;stroke:none"
           id="path539" />
      </g>
    </g>
  </g>
</svg>
